PathFileType	4	(X/Y/Z)	D:\TRACE\spotREDO_2-26-24\spot_Both_Motion_3_5-platform.trc
DataRate	CameraRate	NumFrames	NumMarkers	Units	OrigDataRate	OrigDataStartFrame	OrigNumFrames
100.00	100.00	      66	5	mm	100.00	1	      7000
Frame#	Time	Left_Front			Right_Front			Left_Aft			Right_Aft			Post			
		X1	Y1	Z1	X2	Y2	Z2	X3	Y3	Z3	X4	Y4	Z4	X5	Y5	Z5	

1	0.000	-736.38812	99.65138	-539.14111	678.50067	94.05508	-455.04480	-807.13281	-108.31824	661.81281	762.56531	-102.02009	666.12408	-42.72661	788.11670	-828.37427	
2	0.010	-736.34283	99.74609	-539.17389	678.47559	94.08273	-455.04193	-807.07953	-108.22352	661.83423	762.54553	-101.97868	666.21149	-42.77740	788.15869	-828.41724	
3	0.020	-736.37103	99.67126	-539.18060	678.45782	94.19153	-454.97186	-807.07050	-108.20929	661.81494	762.56244	-102.01228	666.14484	-42.67655	788.14905	-828.44153	
4	0.030	-736.31604	99.59818	-539.15784	678.43542	94.18500	-455.03467	-807.11261	-108.25063	661.84167	762.49664	-101.98471	666.15106	-42.81852	788.15234	-828.31268	
5	0.040	-736.34302	99.54391	-539.15424	678.47607	94.16060	-455.03195	-807.13800	-108.30696	661.82861	762.55817	-101.93607	666.12512	-42.77425	788.06177	-828.32654	
6	0.050	-736.35901	99.60072	-539.17426	678.48187	94.05995	-455.12836	-807.10376	-108.27422	661.84900	762.54321	-101.96066	666.11475	-42.82263	788.08777	-828.23529	
7	0.060	-736.33868	99.63505	-539.15454	678.39496	94.17837	-455.06659	-807.10071	-108.26250	661.83801	762.51929	-101.92008	666.10120	-42.79028	788.09344	-828.25775	
8	0.070	-736.35144	99.64204	-539.14832	678.39716	94.19865	-455.05869	-807.09698	-108.23766	661.83600	762.57440	-101.91690	666.12036	-42.76213	788.12341	-828.21497	
9	0.080	-736.33984	99.60424	-539.16791	678.41510	94.14872	-455.06677	-807.12927	-108.23250	661.83795	762.49915	-102.03050	666.14600	-42.75326	788.11804	-828.20361	
10	0.090	-736.37415	99.65188	-539.14532	678.40540	94.18784	-455.04651	-807.11029	-108.29727	661.80817	762.51685	-102.02140	666.19928	-42.79079	788.12146	-828.20416	
11	0.100	-736.34497	99.64626	-539.14911	678.42120	94.19180	-455.04544	-807.15051	-108.32796	661.79218	762.49237	-102.05834	666.15540	-42.79340	788.12109	-828.19733	
12	0.110	-736.37549	99.66911	-539.13782	678.36676	94.23900	-454.99167	-807.13190	-108.32174	661.78925	762.49023	-101.99232	666.17957	-42.75763	788.13531	-828.22168	
13	0.120	-736.35376	99.72880	-539.15668	678.38495	94.21746	-455.07928	-807.12549	-108.27157	661.81549	762.47937	-101.96206	666.14819	-42.77950	788.15240	-828.25317	
14	0.130	-736.35889	99.69110	-539.18610	678.44208	94.23129	-454.97525	-807.08514	-108.22956	661.81500	762.49054	-101.88327	666.06445	-42.71263	788.12201	-828.26624	
15	0.140	-736.40344	99.67945	-539.16309	678.39771	94.22742	-455.04507	-807.10529	-108.23241	661.79425	762.49921	-101.93269	666.04309	-42.70910	788.10303	-828.26392	
16	0.150	-736.34802	99.59010	-539.16772	678.39807	94.18427	-455.06671	-807.12939	-108.26908	661.81909	762.49341	-101.90898	666.07483	-42.75523	788.04431	-828.30328	
17	0.160	-736.40918	99.63868	-539.16223	678.42987	94.17981	-455.05164	-807.14032	-108.32909	661.77722	762.46692	-101.93340	666.10571	-42.72630	788.05518	-828.30243	
18	0.170	-736.33136	99.63277	-539.19354	678.48193	94.05336	-455.09174	-807.10779	-108.25707	661.82483	762.49103	-101.87765	666.06439	-42.80890	788.10779	-828.32391	
19	0.180	-736.37317	99.68987	-539.17383	678.41119	94.22823	-455.03635	-807.09027	-108.24439	661.83356	762.49109	-101.93688	666.09741	-42.72742	788.14484	-828.33978	
20	0.190	-736.35724	99.69356	-539.17365	678.40332	94.20782	-455.03763	-807.07513	-108.25858	661.81183	762.42108	-101.96759	666.11017	-42.82645	788.14819	-828.37091	
21	0.200	-736.34222	99.68646	-539.12677	678.49542	94.06131	-455.07309	-807.14581	-108.31863	661.83496	762.48114	-101.97486	666.16968	-42.76127	788.11462	-828.32312	
22	0.210	-736.39844	99.68145	-539.17401	678.46014	94.10970	-455.03900	-807.13416	-108.29342	661.77545	762.52570	-102.01879	666.11658	-42.75865	788.09741	-828.28357	
23	0.220	-736.32471	99.58265	-539.14093	678.42133	94.20586	-455.07605	-807.17975	-108.29960	661.80634	762.49341	-101.93926	666.14618	-42.81367	788.13794	-828.22882	
24	0.230	-736.34015	99.64196	-539.16528	678.44641	94.18292	-455.02560	-807.18176	-108.27421	661.79663	762.56281	-101.99715	666.13519	-42.76337	788.10156	-828.23474	
25	0.240	-736.30511	99.63773	-539.16449	678.44440	94.08633	-455.08582	-807.23132	-108.14247	661.89081	762.47363	-101.99675	666.15503	-42.76742	788.11859	-828.17535	
26	0.250	-736.35162	99.61536	-539.17596	678.41650	94.17072	-455.03058	-807.22076	-108.14232	661.86230	762.47882	-101.98444	666.15338	-42.80797	788.11639	-828.13708	
27	0.260	-736.35052	99.53886	-539.17346	678.46582	94.17230	-455.03870	-806.99445	-108.42281	661.74115	762.47101	-102.02045	666.09753	-42.83019	788.09076	-828.14331	
28	0.270	-736.33807	99.57878	-539.19067	678.42310	94.18332	-455.01315	-806.97778	-108.45712	661.70795	762.47791	-101.95705	666.08832	-42.80064	788.07983	-828.19208	
29	0.280	-736.36841	99.62412	-539.16663	678.41962	94.18781	-455.03284	-806.96600	-108.45432	661.72284	762.53943	-102.01952	666.16064	-42.87603	788.14178	-828.24908	
30	0.290	-736.35815	99.64993	-539.16663	678.49353	94.08187	-455.06915	-806.95911	-108.44156	661.71277	762.52283	-102.00258	666.10046	-42.76524	788.14685	-828.35425	
31	0.300	-736.32806	99.63531	-539.17010	678.38678	94.21261	-455.01910	-806.97638	-108.38052	661.75037	762.53400	-101.97796	666.15173	-42.77325	788.12891	-828.38373	
32	0.310	-736.34698	99.71027	-539.15704	678.50189	94.08046	-455.04999	-807.00537	-108.42546	661.72974	762.51904	-101.97353	666.15582	-42.80065	788.12689	-828.41608	
33	0.320	-736.38953	99.68980	-539.15961	678.42285	94.19692	-455.02469	-807.03522	-108.48048	661.70898	762.50714	-101.94327	666.09631	-42.78440	788.09796	-828.37250	
34	0.330	-736.35828	99.63365	-539.17761	678.50824	94.07698	-455.05743	-806.99408	-108.45399	661.73901	762.48395	-101.94070	666.08569	-42.81050	788.11102	-828.27679	
35	0.340	-736.39648	99.68246	-539.12988	678.39227	94.18244	-455.06485	-806.98602	-108.33701	661.79584	762.49512	-101.94108	666.09039	-42.76861	788.13080	-828.24677	
36	0.350	-736.30298	99.58081	-539.11029	678.40363	94.19573	-455.05170	-806.98248	-108.43842	661.87500	762.46979	-101.92274	666.11890	-42.82327	788.10376	-828.22205	
37	0.360	-736.32068	99.57055	-539.16431	678.46588	94.07886	-455.06805	-807.07483	-108.30788	661.79053	762.48175	-101.93571	666.08917	-42.85762	788.12421	-828.12592	
38	0.370	-736.39966	99.63055	-539.16766	678.50781	94.05051	-455.03555	-807.08936	-108.34349	661.78168	762.39069	-102.12946	666.45905	-42.74273	788.07422	-828.19604	
39	0.380	-736.32605	99.59814	-539.14813	678.40131	94.21851	-455.02094	-807.07184	-108.35249	661.77991	762.49921	-101.92718	666.41882	-42.81252	788.10370	-828.15833	
40	0.390	-736.34229	99.66578	-539.15186	678.38190	94.21026	-455.04193	-807.11230	-108.33273	661.79297	762.52350	-101.87241	666.45245	-42.74584	788.11871	-828.21985	
41	0.400	-736.38049	99.69084	-539.17426	678.40314	94.21806	-454.96466	-807.11060	-108.34308	661.76691	762.48248	-101.87825	666.47089	-42.81060	788.14624	-828.23932	
42	0.410	-736.29816	99.69038	-539.13843	678.39575	94.23405	-455.01407	-807.06781	-108.30991	661.77960	762.52551	-101.94213	666.43402	-42.77404	788.13434	-828.31342	
43	0.420	-736.36102	99.61926	-539.12695	678.38318	94.23103	-455.00266	-807.09082	-108.32812	661.80536	762.56506	-101.94715	666.49921	-42.73826	788.14014	-828.31012	
44	0.430	-736.35443	99.66254	-539.15533	678.42584	94.22414	-454.98581	-807.10284	-108.33176	661.79126	762.52979	-101.87830	666.53131	-42.77229	788.12628	-828.31775	
45	0.440	-736.33124	99.57701	-539.14954	678.48932	94.05967	-455.04028	-807.13019	-108.29651	661.78546	762.54285	-101.87556	666.52728	-42.75230	788.10803	-828.33801	
46	0.450	-736.33594	99.55433	-539.12866	678.47284	94.06703	-455.09509	-807.14423	-108.31033	661.82227	762.53851	-101.91072	666.52875	-42.79947	788.09686	-828.28937	
47	0.460	-736.37256	99.60061	-539.15625	678.47668	94.07543	-455.10950	-807.10577	-108.29212	661.80804	762.51031	-101.85057	666.55713	-42.75697	788.11389	-828.28558	
48	0.470	-736.39221	99.67634	-539.16937	678.39313	94.21309	-455.01990	-807.14844	-108.25910	661.84149	762.48065	-101.90313	666.57104	-42.78517	788.10907	-828.23547	
49	0.480	-736.34686	99.68631	-539.16290	678.40875	94.17911	-455.07101	-807.14557	-108.27995	661.78357	762.50146	-101.83216	666.61823	-42.76194	788.09259	-828.25439	
50	0.490	-736.39008	99.62131	-539.18622	678.38428	94.23324	-455.03009	-807.09760	-108.25407	661.76483	762.53815	-101.75697	666.58386	-42.79859	788.13208	-828.19818	
51	0.500	-736.37769	99.68304	-539.16809	678.42834	94.23373	-455.00522	-807.11224	-108.30853	661.80493	762.54395	-101.84290	666.56757	-42.75579	788.12091	-828.24872	
52	0.510	-736.37848	99.68180	-539.15460	678.43549	94.22123	-454.97937	-807.07947	-108.27232	661.81885	762.50769	-101.85211	666.55310	-42.76382	788.13818	-828.20673	
53	0.520	-736.39258	99.69994	-539.15424	678.41284	94.20524	-455.06421	-807.11517	-108.30549	661.81207	762.55298	-101.93600	666.61487	-42.77927	788.14417	-828.19690	
54	0.530	-736.43134	99.68664	-539.17029	678.38788	94.20567	-455.01987	-807.14819	-108.28996	661.81342	762.53546	-101.84254	666.64496	-42.75998	788.11615	-828.22870	
55	0.540	-736.35278	99.64307	-539.16107	678.44580	94.19650	-455.00467	-807.11987	-108.27023	661.80493	762.39044	-101.91505	666.60492	-42.79598	788.13660	-828.22766	
56	0.550	-736.36823	99.68099	-539.19861	678.49896	94.07835	-455.07593	-807.13202	-108.28220	661.78961	762.55487	-101.81445	666.61890	-42.78480	788.09204	-828.25360	
57	0.560	-736.39056	99.67577	-539.20715	678.43475	94.19965	-454.99738	-807.13751	-108.26294	661.79272	762.56787	-101.83913	666.59088	-42.76771	788.07385	-828.26477	
58	0.570	-736.36682	99.67754	-539.19037	678.52533	94.04286	-455.06018	-807.10254	-108.29784	661.80377	762.59631	-101.88413	666.61145	-42.74706	788.10284	-828.31390	
59	0.580	-736.32526	99.57221	-539.13300	678.48889	94.06171	-455.08865	-807.09845	-108.30713	661.82391	762.55530	-101.80911	666.66223	-42.84271	788.14343	-828.28400	
60	0.590	-736.33820	99.58755	-539.15082	678.40094	94.18196	-455.05264	-807.11804	-108.34151	661.82764	762.56140	-101.94778	666.66675	-42.76650	788.10504	-828.30066	
61	0.600	-736.35345	99.67182	-539.15656	678.41150	94.20394	-455.04822	-807.17145	-108.37225	661.77789	762.56775	-101.95187	666.64771	-42.75973	788.12396	-828.33124	
62	0.610	-736.35986	99.67181	-539.14386	678.35364	94.20851	-455.07437	-807.16254	-108.30981	661.80579	762.57263	-101.90907	666.60510	-42.79578	788.11438	-828.29120	
63	0.620	-736.37671	99.72387	-539.15833	678.50659	94.04900	-455.05136	-807.14178	-108.28664	661.77875	762.51044	-101.96214	666.64172	-42.78695	788.11646	-828.28632	
64	0.630	-736.30829	99.60702	-539.16235	678.36652	94.21245	-455.01205	-807.14301	-108.30624	661.79413	762.57947	-101.87923	666.63385	-42.72957	788.13947	-828.22839	
65	0.640	-736.37970	99.69466	-539.19116	678.37921	94.23424	-455.04718	-807.13470	-108.29730	661.79224	762.54718	-101.92297	666.61456	-42.73219	788.09528	-828.22864	
66	0.650	-736.39380	99.65272	-539.16492	678.50494	94.08034	-455.06235	-807.09467	-108.31255	661.79907	762.57910	-101.93474	666.62628	-42.73935	788.10303	-828.20020	
